<svg xmlns:xlink="http://www.w3.org/1999/xlink" width="316" xmlns="http://www.w3.org/2000/svg" height="307" id="screenshot-8ddd5277-1434-8081-8003-ee5e0d558bc2" viewBox="0 0 316 307" style="-webkit-print-color-adjust: exact;" fill="none" version="1.1"><g id="shape-8ddd5277-1434-8081-8003-ee5e0d558bc2" rx="0" ry="0"><g id="shape-dc6962c2-089b-801e-8003-dd8c3fb131ce"><defs><linearGradient id="fill-color-gradient_rumext-id-2_0" x1="0.49594358373094377" y1="-0.04904577313488514" x2="0.4910419847114107" y2="0.9912948849571211" gradientTransform="matrix(0.999986, 0.005272, -0.004456, 0.999990, 0.002235, -0.002631)"><stop offset="0" stop-color="#4959EC" stop-opacity="1"/><stop offset="1" stop-color="#5ef6ff" stop-opacity="0.6001847896684858"/></linearGradient><pattern patternUnits="userSpaceOnUse" x="0.4583952420375681" y="55.23061304240309" height="206.72358711584184" width="315.0832095159258" data-loading="false" patternTransform="matrix(0.999986, 0.005272, -0.004456, 0.999990, 0.708891, -0.831439)" id="fill-0-rumext-id-2"><g><rect width="315.0832095159258" height="206.72358711584184" style="fill: url(&quot;#fill-color-gradient_rumext-id-2_0&quot;);"/></g></pattern></defs><g class="fills" id="fills-dc6962c2-089b-801e-8003-dd8c3fb131ce"><path rx="0" ry="0" d="M286.562,137.456L296.863,137.510L296.938,120.596L302.109,120.623L302.213,97.298L297.042,97.271L297.118,80.357L276.043,80.246L276.152,55.852L40.729,54.611L35.545,54.584L30.374,54.556L30.270,77.882L35.441,77.909L35.400,87.037L24.166,86.978L17.033,86.941L17.134,64.226L0.878,64.140L0.714,100.807L14.020,100.877L13.891,129.851L5.769,129.808L5.586,170.871L23.792,170.967L23.702,190.995L27.316,191.014L27.273,200.723L18.840,200.679L18.789,212.128L11.291,212.088L11.187,235.413L18.685,235.453L18.571,261.220L34.624,261.305L36.776,261.316L268.097,262.536L268.097,262.506L290.323,262.623L290.427,239.297L276.201,239.222L276.258,226.430L299.593,226.553L299.776,185.490L293.022,185.454L293.086,170.983L315.487,171.101L315.591,147.745L286.517,147.592L286.562,137.456ZL286.562,137.456Z" fill="url(#fill-0-rumext-id-2)"/></g></g><g id="shape-dc6962c2-089b-801e-8003-dd8e7a42dc44"><defs><linearGradient id="fill-color-gradient_rumext-id-3_0" x1="0.5" y1="0" x2="0.5" y2="1" gradientTransform=""><stop offset="0" stop-color="#4959EC" stop-opacity="1"/><stop offset="1" stop-color="#5ef6ff" stop-opacity="0.6064625652158863"/></linearGradient><pattern patternUnits="userSpaceOnUse" x="275.15653953051606" y="267.1755772034867" height="25" width="28.000000000000455" data-loading="false" id="fill-0-rumext-id-3"><g><rect width="28.000000000000455" height="25" style="fill: url(&quot;#fill-color-gradient_rumext-id-3_0&quot;);"/></g></pattern></defs><g class="fills" id="fills-dc6962c2-089b-801e-8003-dd8e7a42dc44"><rect rx="0" ry="0" x="275.15653953051606" y="267.1755772034867" transform="matrix(-0.999920, -0.012612, 0.012612, -0.999920, 574.762744, 562.975823)" width="28.000000000000455" height="25" fill="url(#fill-0-rumext-id-3)"/></g></g><g id="shape-dc6962c2-089b-801e-8003-dd8e09caa2de"><defs><linearGradient id="fill-color-gradient_rumext-id-4_0" x1="0.5" y1="0" x2="0.5" y2="1" gradientTransform=""><stop offset="0" stop-color="#4959EC" stop-opacity="1"/><stop offset="1" stop-color="#5ef6ff" stop-opacity="0.5064697840093141"/></linearGradient><pattern patternUnits="userSpaceOnUse" x="277" y="25" height="25" width="28" data-loading="false" id="fill-0-rumext-id-4"><g><rect width="28" height="25" style="fill: url(&quot;#fill-color-gradient_rumext-id-4_0&quot;);"/></g></pattern></defs><g class="fills" id="fills-dc6962c2-089b-801e-8003-dd8e09caa2de"><rect rx="0" ry="0" x="277" y="25" transform="matrix(1.000000, 0.000000, 0.000000, 1.000000, 0.000000, 0.000000)" width="28" height="25" fill="url(#fill-0-rumext-id-4)"/></g></g><g id="shape-dc6962c2-089b-801e-8003-dd8c3fb131d2"><defs><linearGradient id="fill-color-gradient_rumext-id-5_0" x1="0.5" y1="0" x2="0.5" y2="1" gradientTransform=""><stop offset="0" stop-color="#4959EC" stop-opacity="1"/><stop offset="1" stop-color="#5ef6ff" stop-opacity="0.5064697840093141"/></linearGradient><pattern patternUnits="userSpaceOnUse" x="31.00812215512451" y="14.144271156035757" height="27.200521453914916" width="28.007336140111875" data-loading="false" id="fill-0-rumext-id-5"><g><rect width="28.007336140111875" height="27.200521453914916" style="fill: url(&quot;#fill-color-gradient_rumext-id-5_0&quot;);"/></g></pattern></defs><g class="fills" id="fills-dc6962c2-089b-801e-8003-dd8c3fb131d2"><rect rx="0" ry="0" x="31.00812215512451" y="14.144271156035757" transform="matrix(1.000000, 0.000000, 0.000000, 1.000000, 0.000000, 0.000000)" width="28.007336140111875" height="27.200521453914916" fill="url(#fill-0-rumext-id-5)"/></g></g><g id="shape-dc6962c2-089b-801e-8003-dd8e4730f24e"><defs><linearGradient id="fill-color-gradient_rumext-id-6_0" x1="0.5" y1="0" x2="0.5" y2="1" gradientTransform=""><stop offset="0" stop-color="#4959EC" stop-opacity="1"/><stop offset="1" stop-color="#5ef6ff" stop-opacity="0.5064697840093141"/></linearGradient><pattern patternUnits="userSpaceOnUse" x="1.0733830875287822" y="0.08911255921884731" height="18.4962474700651" width="19.005108318844577" data-loading="false" id="fill-0-rumext-id-6"><g><rect width="19.005108318844577" height="18.4962474700651" style="fill: url(&quot;#fill-color-gradient_rumext-id-6_0&quot;);"/></g></pattern></defs><g class="fills" id="fills-dc6962c2-089b-801e-8003-dd8e4730f24e"><rect rx="0" ry="0" x="1.0733830875287822" y="0.08911255921884731" transform="matrix(-0.999956, 0.009409, -0.007952, -0.999968, 21.225657, 18.574673)" width="19.005108318844577" height="18.4962474700651" fill="url(#fill-0-rumext-id-6)"/></g></g><g id="shape-dc6962c2-089b-801e-8003-dd8e882edfce"><defs><linearGradient id="fill-color-gradient_rumext-id-7_0" x1="0.5" y1="0" x2="0.5" y2="1" gradientTransform=""><stop offset="0" stop-color="#4959EC" stop-opacity="1"/><stop offset="1" stop-color="#5ef6ff" stop-opacity="0.5064697840093141"/></linearGradient><pattern patternUnits="userSpaceOnUse" x="211.12840413837193" y="288.41463997071605" height="18.4962474700651" width="19.005108318844123" data-loading="false" id="fill-0-rumext-id-7"><g><rect width="19.005108318844123" height="18.4962474700651" style="fill: url(&quot;#fill-color-gradient_rumext-id-7_0&quot;);"/></g></pattern></defs><g class="fills" id="fills-dc6962c2-089b-801e-8003-dd8e882edfce"><rect rx="0" ry="0" x="211.12840413837193" y="288.41463997071605" transform="matrix(-0.999956, 0.009409, -0.007952, -0.999968, 443.619185, 593.240305)" width="19.005108318844123" height="18.4962474700651" fill="url(#fill-0-rumext-id-7)"/></g></g><g id="shape-dc6962c2-089b-801e-8003-dd8f2f8b426a"><defs><linearGradient id="fill-color-gradient_rumext-id-8_0" x1="0.5" y1="0" x2="0.5" y2="1" gradientTransform=""><stop offset="0" stop-color="#4959EC" stop-opacity="1"/><stop offset="1" stop-color="#5ef6ff" stop-opacity="0.5064697840093141"/></linearGradient><pattern patternUnits="userSpaceOnUse" x="26.073121082525176" y="275.08911255921885" height="18.4962474700651" width="19.005108318844577" data-loading="false" id="fill-0-rumext-id-8"><g><rect width="19.005108318844577" height="18.4962474700651" style="fill: url(&quot;#fill-color-gradient_rumext-id-8_0&quot;);"/></g></pattern></defs><g class="fills" id="fills-dc6962c2-089b-801e-8003-dd8f2f8b426a"><rect rx="0" ry="0" x="26.073121082525176" y="275.08911255921885" transform="matrix(-0.999956, 0.009409, -0.007952, -0.999968, 73.410844, 568.330768)" width="19.005108318844577" height="18.4962474700651" fill="url(#fill-0-rumext-id-8)"/></g></g></g></svg>