<svg xmlns:xlink="http://www.w3.org/1999/xlink" width="574.368" xmlns="http://www.w3.org/2000/svg" height="108.21" id="screenshot-f6dbf53d-626d-806c-8003-e85f8b45d754" viewBox="-2 0 574.368 108.21" style="-webkit-print-color-adjust: exact;" fill="none" version="1.1"><g id="shape-f6dbf53d-626d-806c-8003-e85f8b45d754" rx="0" ry="0"><g id="shape-b9969f9e-4e7d-8092-8003-dcea24acb09d" rx="0" ry="0"><g id="shape-b9969f9e-4e7d-8092-8003-dcea24acb09e"><defs><radialGradient id="fill-color-gradient_rumext-id-3_0" cx="0.5" cy="0.5" r="0.5" gradientTransform="matrix(-1.000000, -0.000032, -0.000045, -0.989005, 1.000022, 0.994519)"><stop offset="0" stop-color="#4959EC" stop-opacity="1"/><stop offset="1" stop-color="#C161C9" stop-opacity="1"/></radialGradient><pattern patternUnits="userSpaceOnUse" x="383.12294320162755" y="0.7054429999916465" height="35.901057178556584" width="138.4645461998657" data-loading="false" patternTransform="matrix(0.999996, 0.002885, -0.004070, 0.999992, 0.077814, -1.304687)" id="fill-0-rumext-id-3"><g><rect width="138.4645461998657" height="35.901057178556584" style="fill: url(&quot;#fill-color-gradient_rumext-id-3_0&quot;);"/></g></pattern></defs><g class="fills" id="fills-b9969f9e-4e7d-8092-8003-dcea24acb09e"><path rx="0" ry="0" d="M475.538,29.876C474.873,31.873,475.318,34.182,476.634,35.560C477.951,36.938,479.827,37.061,481.255,35.862C482.682,34.663,483.323,32.425,482.833,30.353C482.343,28.281,480.837,26.864,479.126,26.863C478.617,26.858,478.113,26.984,477.643,27.234L474.695,23.477L487.481,7.459L514.147,7.535C514.799,9.719,516.581,11.011,518.403,10.622C520.225,10.232,521.580,8.270,521.638,5.934C521.697,3.599,520.444,1.541,518.645,1.018C516.846,0.496,515.002,1.656,514.241,3.787L486.864,3.708C486.472,3.708,486.094,3.904,485.815,4.255L471.997,21.595L383.111,21.339L383.096,25.087L471.982,25.343ZM518.677,5.799C518.673,6.377,518.327,6.859,517.873,6.922L517.882,4.673C518.335,4.737,518.677,5.222,518.677,5.799ZZM479.062,32.910C478.821,32.911,478.590,32.788,478.421,32.571L479.722,30.951C479.889,31.168,479.984,31.459,479.985,31.763C479.978,32.381,479.589,32.885,479.062,32.910ZZ" fill="url(#fill-0-rumext-id-3)"/></g></g><g id="shape-b9969f9e-4e7d-8092-8003-dcea24acb09f"><defs><radialGradient id="fill-color-gradient_rumext-id-4_0" cx="0.5" cy="0.5" r="0.5" gradientTransform="matrix(-1.000000, -0.000027, -0.000038, -0.990669, 1.000019, 0.995348)"><stop offset="0" stop-color="#545AE9" stop-opacity="1"/><stop offset="1" stop-color="#C161C9" stop-opacity="0.9876804662596742"/></radialGradient><pattern patternUnits="userSpaceOnUse" x="379.1582305779448" y="48.08221340572891" height="59.03350780900291" width="192.93164854610131" data-loading="false" patternTransform="matrix(0.999996, 0.002885, -0.004070, 0.999992, 0.317816, -1.371319)" id="fill-0-rumext-id-4"><g><rect width="192.93164854610131" height="59.03350780900291" style="fill: url(&quot;#fill-color-gradient_rumext-id-4_0&quot;);"/></g></pattern></defs><g class="fills" id="fills-b9969f9e-4e7d-8092-8003-dcea24acb09f"><path rx="0" ry="0" d="M568.307,51.105C566.171,51.105,564.432,53.289,564.416,55.991C564.413,56.379,564.452,56.766,564.530,57.141L545.605,74.579C545.011,74.120,544.329,73.876,543.632,73.873C543.106,73.868,542.584,74.002,542.100,74.269L529.592,58.327L533.841,52.992L548.478,53.034C549.176,55.195,550.984,56.427,552.798,55.976C554.611,55.526,555.924,53.518,555.934,51.182C555.943,48.845,549.208,47.129,548.493,49.286L533.254,49.242C532.861,49.241,532.484,49.438,532.205,49.789L519.300,65.994L516.558,62.500C516.282,62.148,515.907,61.949,515.514,61.948L379.223,61.554L379.208,65.303L489.456,65.621L514.876,65.694L531.717,87.145L519.821,98.194C518.329,97.004,516.388,97.244,515.100,98.777C513.813,100.310,513.506,102.748,514.354,104.703C515.201,106.659,516.989,107.638,518.701,107.083C520.412,106.528,521.613,104.580,521.621,102.347C521.619,101.977,521.588,101.609,521.527,101.247L534.900,88.841C535.255,88.522,535.478,88.018,535.508,87.469C535.539,86.925,535.383,86.392,535.080,86.006L521.422,68.612L527.547,60.920L540.084,76.912C539.899,77.483,539.802,78.093,539.801,78.710C539.793,80.460,540.525,82.079,541.719,82.957C542.913,83.836,544.389,83.840,545.590,82.968C546.792,82.097,547.536,80.482,547.543,78.732C547.546,78.311,547.504,77.890,547.420,77.483L566.315,60.132C566.907,60.599,567.589,60.851,568.287,60.863C570.425,60.869,572.168,58.681,572.179,55.976C572.190,53.271,570.465,51.074,568.307,51.105ZL568.307,51.105ZM552.979,51.123C552.978,51.428,552.881,51.720,552.710,51.935C552.538,52.150,552.307,52.271,552.066,52.270L552.075,49.971C552.577,49.972,552.982,50.488,552.979,51.123ZL552.979,51.123ZM516.812,102.246C516.813,101.844,516.984,101.473,517.260,101.272L518.309,103.100C518.044,103.401,517.663,103.476,517.339,103.291C517.015,103.106,516.808,102.696,516.812,102.246ZL516.812,102.246ZM568.807,56.866L567.758,55.039C567.912,54.891,568.099,54.809,568.292,54.803C568.683,54.804,569.027,55.124,569.145,55.595C569.263,56.066,569.126,56.579,568.807,56.866ZL568.807,56.866Z" fill="url(#fill-0-rumext-id-4)"/></g></g><g id="shape-b9969f9e-4e7d-8092-8003-dcea24acb0a0"><defs><radialGradient id="fill-color-gradient_rumext-id-5_0" cx="0.5" cy="0.5" r="0.5" gradientTransform="matrix(-1.000000, -0.000023, -0.000033, -0.991948, 1.000016, 0.995986)"><stop offset="0" stop-color="#4959EC" stop-opacity="1"/><stop offset="1" stop-color="#C161C9" stop-opacity="1"/></radialGradient><pattern patternUnits="userSpaceOnUse" x="267.3469627046152" y="5.858871828899282" height="70.99999999999818" width="200" data-loading="false" patternTransform="matrix(0.999996, 0.002885, -0.004070, 0.999992, 0.169864, -1.059288)" id="fill-0-rumext-id-5"><g><rect width="200" height="70.99999999999818" style="fill: url(&quot;#fill-color-gradient_rumext-id-5_0&quot;);"/></g></pattern></defs><g class="fills" id="fills-b9969f9e-4e7d-8092-8003-dcea24acb0a0"><path rx="0" ry="0" d="M463.420,66.744C462.723,66.753,462.042,67.020,461.450,67.513L459.590,65.734C459.337,65.485,459.031,65.350,458.716,65.350L376.741,65.114L386.625,52.004L437.674,52.151C438.368,54.423,440.168,55.718,441.973,55.244C443.778,54.770,445.086,52.659,445.096,50.202C445.106,47.745,443.816,45.626,442.015,45.142C440.213,44.657,438.403,45.942,437.690,48.210L406.705,48.120L412.072,41.002L420.555,41.026C421.024,41.026,421.467,40.730,421.748,40.228L422.936,38.077C423.234,38.188,423.541,38.246,423.850,38.250C425.645,38.288,427.235,36.696,427.715,34.382C428.194,32.067,427.440,29.618,425.884,28.430C424.327,27.241,422.362,27.616,421.109,29.340C419.856,31.064,419.633,33.699,420.567,35.744L419.824,37.056L412.943,37.036L413.009,20.942C413.007,20.316,412.788,19.728,412.415,19.350L405.307,12.366C405.753,9.966,404.868,7.486,403.195,6.442C401.522,5.399,399.526,6.084,398.430,8.078C397.333,10.072,397.441,12.819,398.688,14.638C399.935,16.457,401.973,16.840,403.554,15.554L410.055,21.945L409.989,38.171L402.527,48.069L386.563,48.023L383.718,44.178C384.371,42.082,383.923,39.666,382.615,38.228C381.306,36.790,379.445,36.668,378.031,37.928C376.617,39.188,375.983,41.533,376.470,43.703C376.956,45.874,378.449,47.359,380.146,47.360C380.653,47.361,381.155,47.224,381.622,46.957L383.959,50.025L369.133,69.691L267.232,69.397L267.216,73.338L369.727,73.634C370.118,73.634,370.494,73.428,370.771,73.059L373.736,69.126L458.209,69.369L459.628,70.766C459.234,72.900,459.894,75.128,461.273,76.316C462.652,77.505,464.446,77.392,465.741,76.035C467.036,74.678,467.547,72.376,467.015,70.301C466.482,68.226,465.023,66.834,463.380,66.835L463.420,66.744ZM423.876,31.839C424.116,31.839,424.345,31.967,424.514,32.194C424.683,32.422,424.777,32.729,424.776,33.050C424.771,33.307,424.704,33.556,424.586,33.759L423.156,32.349C423.319,32.031,423.588,31.840,423.876,31.839ZL423.876,31.839ZM401.591,9.938C401.780,9.945,401.963,10.033,402.111,10.189L401.051,12.117C400.817,11.898,400.676,11.541,400.672,11.157C400.673,10.833,400.771,10.523,400.943,10.294C401.116,10.065,401.349,9.937,401.591,9.938ZL401.591,9.938ZM442.175,50.193C442.173,50.514,442.077,50.821,441.906,51.047C441.736,51.273,441.505,51.400,441.265,51.399L441.275,48.982C441.515,48.983,441.744,49.111,441.913,49.338C442.082,49.565,442.176,49.873,442.175,50.193ZL442.175,50.193ZM380.172,41.028C380.412,41.027,380.641,41.156,380.809,41.384L379.515,43.089C379.256,42.740,379.182,42.218,379.326,41.766C379.470,41.313,379.805,41.022,380.172,41.028ZL380.172,41.028ZM463.394,73.116C463.205,73.109,463.022,73.020,462.874,72.865L463.933,70.936C464.170,71.160,464.311,71.522,464.313,71.910C464.305,72.579,463.895,73.117,463.394,73.116ZL463.394,73.116Z" fill="url(#fill-0-rumext-id-5)"/></g></g><g id="shape-b9969f9e-4e7d-8092-8003-dcea24acb0a1"><defs><radialGradient id="fill-color-gradient_rumext-id-6_0" cx="0.5" cy="0.5" r="0.5" gradientTransform="matrix(-1.000000, -0.000113, -0.000159, -0.960886, 1.000079, 0.980500)"><stop offset="0" stop-color="#545AE9" stop-opacity="1"/><stop offset="1" stop-color="#C161C9" stop-opacity="1"/></radialGradient><pattern patternUnits="userSpaceOnUse" x="383.2063384891039" y="77.73908132311408" height="9.821298151759038" width="138.62514781459458" data-loading="false" patternTransform="matrix(0.999996, 0.002885, -0.004070, 0.999992, 0.338277, -1.304629)" id="fill-0-rumext-id-6"><g><rect width="138.62514781459458" height="9.821298151759038" style="fill: url(&quot;#fill-color-gradient_rumext-id-6_0&quot;);"/></g></pattern></defs><g class="fills" id="fills-b9969f9e-4e7d-8092-8003-dcea24acb0a1"><path rx="0" ry="0" d="M517.927,87.749C519.876,87.756,521.531,85.934,521.795,83.491C522.059,81.048,520.851,78.740,518.972,78.098C517.092,77.456,515.123,78.678,514.370,80.954L383.214,80.576L383.199,84.324L514.354,84.703C514.949,86.539,516.357,87.740,517.927,87.749ZZM518.856,82.841C518.854,83.457,518.468,83.963,517.982,83.988L517.991,81.702C518.476,81.724,518.858,82.228,518.856,82.841ZZ" fill="url(#fill-0-rumext-id-6)"/></g></g></g><g id="shape-f6dbf53d-626d-806c-8003-e85db2fd59fa"><g class="fills" id="fills-f6dbf53d-626d-806c-8003-e85db2fd59fa"><path rx="0" ry="0" d="M0.000,18.320L0.000,71.436L7.500,71.436L27.500,71.436L78.000,71.436L270.000,71.436"/></g><g id="strokes-f6dbf53d-626d-806c-8003-e85db2fd59fa" class="strokes"><g class="stroke-shape"><defs><linearGradient id="stroke-color-gradient_rumext-id-7_0" x1="0.5003132102536239" y1="0.6956053483801987" x2="0.5" y2="1" gradientTransform="matrix(1.000000, 0.000000, 0.000000, 1.000000, 0.000000, 0.000000)"><stop offset="0" stop-color="#4959ec" stop-opacity="1"/><stop offset="1" stop-color="#C161C9" stop-opacity="1"/></linearGradient></defs><path rx="0" ry="0" d="M0.000,18.320L0.000,71.436L7.500,71.436L27.500,71.436L78.000,71.436L270.000,71.436" style="fill: none; stroke-width: 4; stroke: url(&quot;#stroke-color-gradient_rumext-id-7_0&quot;);"/></g></g></g></g></svg>