<svg xmlns:xlink="http://www.w3.org/1999/xlink" width="482" xmlns="http://www.w3.org/2000/svg" height="405" id="screenshot-ae8423e1-1879-80b0-8003-e860c89600ff" viewBox="0 0 482 405" style="-webkit-print-color-adjust: exact;" fill="none" version="1.1"><g id="shape-ae8423e1-1879-80b0-8003-e860c89600ff" rx="0" ry="0"><g id="shape-b9969f9e-4e7d-8092-8003-dcea652899bf" rx="0" ry="0"><g id="shape-b9969f9e-4e7d-8092-8003-dcea652899c0"><defs><radialGradient id="fill-color-gradient_rumext-id-3_0" cx="0.5" cy="0.5" r="0.5" gradientTransform="matrix(-0.999999, -0.000156, -0.000185, -0.975758, 1.000092, 0.987957)"><stop offset="0" stop-color="#4959EC" stop-opacity="1"/><stop offset="1" stop-color="#C161C9" stop-opacity="1"/></radialGradient><pattern patternUnits="userSpaceOnUse" x="50.558348602706246" y="71.2134526400105" height="35.90105717855931" width="138.46454619986525" data-loading="false" patternTransform="matrix(-0.999979, -0.006450, 0.007635, -0.999971, 238.897978, 179.097957)" id="fill-0-rumext-id-3"><g><rect width="138.46454619986525" height="35.90105717855931" style="fill: url(&quot;#fill-color-gradient_rumext-id-3_0&quot;);"/></g></pattern></defs><g class="fills" id="fills-b9969f9e-4e7d-8092-8003-dcea652899c0"><path rx="0" ry="0" d="M96.648,77.861C97.320,75.867,96.883,73.557,95.572,72.174C94.261,70.791,92.384,70.662,90.953,71.855C89.521,73.049,88.872,75.284,89.355,77.358C89.838,79.432,91.338,80.855,93.049,80.861C93.558,80.868,94.063,80.744,94.534,80.496L97.468,84.263L84.625,100.236L57.960,100.064C57.315,97.878,55.538,96.580,53.714,96.963C51.891,97.346,50.530,99.303,50.463,101.639C50.395,103.974,51.641,106.037,53.439,106.565C55.236,107.094,57.084,105.941,57.852,103.812L85.228,103.988C85.621,103.990,85.999,103.795,86.279,103.445L100.159,86.155L189.043,86.728L189.072,82.980L100.188,82.407ZM53.423,101.784C53.430,101.207,53.778,100.725,54.232,100.665L54.215,102.914C53.761,102.847,53.421,102.362,53.423,101.784ZZM93.135,74.815C93.376,74.815,93.606,74.938,93.774,75.156L92.468,76.772C92.301,76.554,92.208,76.262,92.208,75.958C92.217,75.340,92.607,74.838,93.135,74.815ZZ" fill="url(#fill-0-rumext-id-3)"/></g></g><g id="shape-b9969f9e-4e7d-8092-8003-dcea652899c1"><defs><radialGradient id="fill-color-gradient_rumext-id-4_0" cx="0.5" cy="0.5" r="0.5" gradientTransform="matrix(-0.999999, -0.000133, -0.000157, -0.979386, 1.000078, 0.989759)"><stop offset="0" stop-color="#545AE9" stop-opacity="1"/><stop offset="1" stop-color="#C161C9" stop-opacity="0.9876804662596742"/></radialGradient><pattern patternUnits="userSpaceOnUse" x="0.26623945622895917" y="0.6216523916273218" height="59.03350780900476" width="192.93164854610086" data-loading="false" patternTransform="matrix(-0.999979, -0.006450, 0.007635, -0.999971, 193.232006, 60.899811)" id="fill-0-rumext-id-4"><g><rect width="192.93164854610086" height="59.03350780900476" style="fill: url(&quot;#fill-color-gradient_rumext-id-4_0&quot;);"/></g></pattern></defs><g class="fills" id="fills-b9969f9e-4e7d-8092-8003-dcea652899c1"><path rx="0" ry="0" d="M3.955,56.302C6.091,56.309,7.838,54.131,7.864,51.429C7.868,51.041,7.831,50.655,7.754,50.279L26.741,32.909C27.333,33.370,28.014,33.616,28.711,33.622C29.238,33.629,29.760,33.496,30.245,33.232L42.695,49.218L38.428,54.538L23.791,54.443C23.101,52.280,21.297,51.042,19.482,51.486C17.667,51.930,16.347,53.933,16.329,56.269C16.311,58.606,23.040,60.346,23.763,58.191L39.001,58.290C39.394,58.292,39.772,58.097,40.052,57.747L53.015,41.587L55.744,45.091C56.019,45.444,56.394,45.645,56.787,45.648L193.076,46.527L193.104,42.778L82.857,42.067L57.438,41.903L40.673,20.392L52.609,9.386C54.097,10.581,56.039,10.348,57.332,8.820C58.624,7.291,58.940,4.855,58.099,2.896C57.259,0.937,55.474,-0.048,53.761,0.501C52.048,1.050,50.840,2.993,50.824,5.227C50.824,5.596,50.854,5.965,50.914,6.327L37.496,18.685C37.141,19.003,36.916,19.506,36.883,20.055C36.850,20.599,37.005,21.133,37.307,21.520L50.902,38.962L44.750,46.632L32.270,30.596C32.457,30.026,32.556,29.415,32.560,28.799C32.573,27.049,31.848,25.427,30.657,24.545C29.466,23.662,27.990,23.652,26.785,24.520C25.581,25.387,24.831,26.999,24.817,28.749C24.813,29.170,24.853,29.591,24.936,29.999L5.979,47.281C5.389,46.813,4.708,46.558,4.010,46.544C1.872,46.530,0.122,48.712,0.101,51.417C0.080,54.122,1.797,56.326,3.955,56.302ZL3.955,56.302ZM19.283,56.338C19.285,56.034,19.383,55.742,19.555,55.527C19.727,55.313,19.959,55.193,20.200,55.195L20.183,57.494C19.681,57.490,19.278,56.973,19.283,56.338ZL19.283,56.338ZM55.633,5.345C55.630,5.747,55.458,6.118,55.181,6.317L54.138,4.486C54.405,4.186,54.785,4.112,55.109,4.298C55.433,4.484,55.638,4.895,55.633,5.345ZL55.633,5.345ZM3.476,50.539L4.518,52.370C4.364,52.517,4.176,52.599,3.983,52.604C3.593,52.601,3.249,52.280,3.133,51.809C3.017,51.338,3.156,50.824,3.476,50.539ZL3.476,50.539Z" fill="url(#fill-0-rumext-id-4)"/></g></g><g id="shape-b9969f9e-4e7d-8092-8003-dcea652899c2"><defs><radialGradient id="fill-color-gradient_rumext-id-5_0" cx="0.5" cy="0.5" r="0.5" gradientTransform="matrix(-0.999999, -0.000115, -0.000136, -0.982185, 1.000068, 0.991150)"><stop offset="0" stop-color="#4959EC" stop-opacity="1"/><stop offset="1" stop-color="#C161C9" stop-opacity="1"/></radialGradient><pattern patternUnits="userSpaceOnUse" x="104.87927129617219" y="31.264281025005403" height="70.99999999999821" width="199.99999999999955" data-loading="false" patternTransform="matrix(-0.999979, -0.006450, 0.007635, -0.999971, 409.244531, 134.847992)" id="fill-0-rumext-id-5"><g><rect width="199.99999999999955" height="70.99999999999821" style="fill: url(&quot;#fill-color-gradient_rumext-id-5_0&quot;);"/></g></pattern></defs><g class="fills" id="fills-b9969f9e-4e7d-8092-8003-dcea652899c2"><path rx="0" ry="0" d="M108.898,41.037C109.594,41.030,110.276,40.766,110.870,40.275L112.724,42.061C112.976,42.311,113.281,42.446,113.596,42.447L195.570,42.976L185.639,56.051L134.591,55.721C133.905,53.447,132.110,52.145,130.303,52.613C128.496,53.081,127.181,55.187,127.162,57.644C127.144,60.101,128.426,62.225,130.226,62.715C132.025,63.206,133.840,61.928,134.561,59.663L165.546,59.863L160.153,66.962L151.670,66.907C151.201,66.905,150.758,67.200,150.474,67.701L149.278,69.848C148.981,69.736,148.674,69.677,148.366,69.672C146.571,69.627,144.975,71.213,144.487,73.526C144.000,75.839,144.744,78.291,146.297,79.485C147.849,80.678,149.816,80.311,151.075,78.592C152.334,76.872,152.566,74.237,151.640,72.189L152.387,70.880L159.268,70.924L159.145,87.019C159.144,87.644,159.361,88.234,159.733,88.612L166.816,95.621C166.362,98.020,167.237,100.504,168.907,101.553C170.576,102.602,172.574,101.925,173.678,99.934C174.782,97.944,174.683,95.197,173.443,93.373C172.203,91.550,170.167,91.159,168.580,92.440L162.102,86.026L162.226,69.800L169.723,59.929L185.688,60.032L188.519,63.887C187.858,65.980,188.297,68.398,189.600,69.841C190.904,71.284,192.765,71.412,194.183,70.157C195.602,68.902,196.244,66.559,195.765,64.387C195.286,62.215,193.799,60.725,192.102,60.717C191.595,60.714,191.092,60.850,190.624,61.115L188.298,58.039L203.194,38.426L305.093,39.084L305.124,35.142L202.614,34.481C202.223,34.479,201.847,34.685,201.568,35.052L198.589,38.975L114.118,38.430L112.703,37.028C113.105,34.896,112.453,32.665,111.078,31.472C109.704,30.279,107.910,30.385,106.610,31.738C105.310,33.090,104.790,35.391,105.315,37.467C105.840,39.544,107.295,40.941,108.938,40.946L108.898,41.037ZM148.317,76.083C148.077,76.081,147.848,75.953,147.680,75.725C147.512,75.497,147.419,75.189,147.421,74.868C147.427,74.611,147.494,74.363,147.614,74.160L149.038,75.575C148.874,75.892,148.604,76.082,148.317,76.083ZL148.317,76.083ZM170.523,98.063C170.334,98.055,170.152,97.966,170.004,97.810L171.071,95.885C171.305,96.106,171.444,96.464,171.447,96.847C171.444,97.171,171.346,97.481,171.173,97.709C170.999,97.937,170.766,98.064,170.523,98.063ZL170.523,98.063ZM130.084,57.663C130.086,57.343,130.184,57.036,130.355,56.810C130.526,56.585,130.757,56.459,130.997,56.460L130.979,58.878C130.739,58.876,130.510,58.747,130.342,58.519C130.174,58.292,130.081,57.984,130.084,57.663ZL130.084,57.663ZM192.053,67.050C191.813,67.049,191.584,66.920,191.417,66.691L192.718,64.991C192.975,65.340,193.047,65.863,192.902,66.315C192.756,66.766,192.421,67.057,192.053,67.050ZL192.053,67.050ZM108.946,34.665C109.135,34.673,109.317,34.762,109.465,34.918L108.399,36.843C108.164,36.618,108.024,36.256,108.023,35.868C108.033,35.198,108.445,34.662,108.946,34.665ZL108.946,34.665Z" fill="url(#fill-0-rumext-id-5)"/></g></g><g id="shape-b9969f9e-4e7d-8092-8003-dcea652899c3"><defs><radialGradient id="fill-color-gradient_rumext-id-6_0" cx="0.5" cy="0.5" r="0.5" gradientTransform="matrix(-0.999996, -0.000538, -0.000637, -0.916591, 1.000316, 0.958564)"><stop offset="0" stop-color="#545AE9" stop-opacity="1"/><stop offset="1" stop-color="#C161C9" stop-opacity="1"/></radialGradient><pattern patternUnits="userSpaceOnUse" x="50.542491500693814" y="20.259396424955412" height="9.821298151759947" width="138.62514781459413" data-loading="false" patternTransform="matrix(-0.999979, -0.006450, 0.007635, -0.999971, 239.515463, 51.112367)" id="fill-0-rumext-id-6"><g><rect width="138.62514781459413" height="9.821298151759947" style="fill: url(&quot;#fill-color-gradient_rumext-id-6_0&quot;);"/></g></pattern></defs><g class="fills" id="fills-b9969f9e-4e7d-8092-8003-dcea652899c3"><path rx="0" ry="0" d="M54.465,19.838C52.517,19.823,50.855,21.639,50.582,24.082C50.309,26.524,51.509,28.836,53.387,29.485C55.264,30.134,57.237,28.919,57.999,26.645L189.152,27.491L189.181,23.743L58.027,22.897C57.440,21.059,56.035,19.852,54.465,19.838ZZM53.519,24.742C53.524,24.126,53.911,23.622,54.397,23.598L54.380,25.884C53.895,25.861,53.514,25.355,53.519,24.742ZZ" fill="url(#fill-0-rumext-id-6)"/></g></g></g><g id="shape-ae8423e1-1879-80b0-8003-e85ff80e3e0e"><g class="fills" id="fills-ae8423e1-1879-80b0-8003-e85ff80e3e0e"><path rx="0" ry="0" d="M480.000,403.000L480.000,37.000L470.715,37.000L289.000,37.000"/></g><g id="strokes-ae8423e1-1879-80b0-8003-e85ff80e3e0e" class="strokes"><g class="stroke-shape"><defs><linearGradient id="stroke-color-gradient_rumext-id-7_0" x1="0.5" y1="0" x2="0.5" y2="1" gradientTransform="matrix(1.000000, 0.000000, 0.000000, 1.000000, 0.000000, 0.000000)"><stop offset="0" stop-color="#4959EC" stop-opacity="1"/><stop offset="1" stop-color="#C161C9" stop-opacity="1"/></linearGradient></defs><path rx="0" ry="0" d="M480.000,403.000L480.000,37.000L470.715,37.000L289.000,37.000" style="fill: none; stroke-width: 4; stroke: url(&quot;#stroke-color-gradient_rumext-id-7_0&quot;);"/></g></g></g></g></svg>