<svg xmlns:xlink="http://www.w3.org/1999/xlink" width="292" xmlns="http://www.w3.org/2000/svg" height="360" id="screenshot-ace22f8b-e3e1-80da-8003-e9d2414edcb6" viewBox="2768 1 292 360" style="-webkit-print-color-adjust: exact;" fill="none" version="1.1"><g id="shape-ace22f8b-e3e1-80da-8003-e9d2414edcb6"><g class="fills" id="fills-ace22f8b-e3e1-80da-8003-e9d2414edcb6"><path rx="0" ry="0" d="M2779.431,16.793L2793.545,2.000L2797.182,2.000L3059.000,2.000L3059.000,331.855L3035.570,360.000L2851.869,360.000L2785.226,360.000L2769.000,360.000L2769.000,254.799L2778.272,246.509L2778.272,87.212L2769.000,79.720L2769.000,29.215L2779.431,16.793Z" style="fill: rgb(48, 171, 154); fill-opacity: 0.244;"/></g><g id="strokes-ace22f8b-e3e1-80da-8003-e9d2414edcb6" class="strokes"><g class="stroke-shape"><path rx="0" ry="0" d="M2779.431,16.793L2793.545,2.000L2797.182,2.000L3059.000,2.000L3059.000,331.855L3035.570,360.000L2851.869,360.000L2785.226,360.000L2769.000,360.000L2769.000,254.799L2778.272,246.509L2778.272,87.212L2769.000,79.720L2769.000,29.215L2779.431,16.793Z" style="fill: none; stroke-width: 2; stroke: rgb(94, 245, 254); stroke-opacity: 0.4;"/></g></g></g></svg>