<svg xmlns:xlink="http://www.w3.org/1999/xlink" width="321" xmlns="http://www.w3.org/2000/svg" height="479" id="screenshot-ace22f8b-e3e1-80da-8003-e9d2414edcb6" viewBox="2704 -12 321 479" style="-webkit-print-color-adjust: exact;" fill="none" version="1.1"><g id="shape-ace22f8b-e3e1-80da-8003-e9d2414edcb6"><g class="fills" id="fills-ace22f8b-e3e1-80da-8003-e9d2414edcb6"><path rx="0" ry="0" d="M2716.474,8.710L2732.000,-11.000L2736.000,-11.000L3024.000,-11.000L3024.000,428.500L2998.227,466.000L2796.155,466.000L2722.849,466.000L2705.000,466.000L2705.000,325.830L2715.199,314.784L2715.199,102.536L2705.000,92.554L2705.000,25.261L2716.474,8.710Z" style="fill: rgb(48, 171, 154); fill-opacity: 0.244;"/></g><g id="strokes-ace22f8b-e3e1-80da-8003-e9d2414edcb6" class="strokes"><g class="stroke-shape"><path rx="0" ry="0" d="M2716.474,8.710L2732.000,-11.000L2736.000,-11.000L3024.000,-11.000L3024.000,428.500L2998.227,466.000L2796.155,466.000L2722.849,466.000L2705.000,466.000L2705.000,325.830L2715.199,314.784L2715.199,102.536L2705.000,92.554L2705.000,25.261L2716.474,8.710Z" style="fill: none; stroke-width: 2; stroke: rgb(94, 245, 254); stroke-opacity: 0.4;"/></g></g></g></svg>