<svg xmlns:xlink="http://www.w3.org/1999/xlink" width="147.5" xmlns="http://www.w3.org/2000/svg" height="106.5" id="screenshot-c0e1fbcd-3b09-808d-8003-e01e50000d9a" viewBox="1222 -12 147.5 106.5" style="-webkit-print-color-adjust: exact;" fill="none" version="1.1"><g id="shape-c0e1fbcd-3b09-808d-8003-e01e50000d9a"><g class="fills" id="fills-c0e1fbcd-3b09-808d-8003-e01e50000d9a"><path rx="0" ry="0" d="M1229.000,-7.000L1235.000,-11.000L1368.500,-11.000L1368.500,85.500L1355.869,93.500L1264.305,93.500L1231.088,93.500L1223.000,93.500L1223.000,62.774L1227.622,60.353L1227.622,13.826L1223.000,11.638L1223.000,-3.113L1229.000,-7.000Z" style="fill: rgb(48, 171, 154); fill-opacity: 0.244;"/></g><g id="strokes-c0e1fbcd-3b09-808d-8003-e01e50000d9a" class="strokes"><g class="stroke-shape"><path rx="0" ry="0" d="M1229.000,-7.000L1235.000,-11.000L1368.500,-11.000L1368.500,85.500L1355.869,93.500L1264.305,93.500L1231.088,93.500L1223.000,93.500L1223.000,62.774L1227.622,60.353L1227.622,13.826L1223.000,11.638L1223.000,-3.113L1229.000,-7.000Z" style="fill: none; stroke-width: 2; stroke: rgb(94, 245, 254); stroke-opacity: 0.4;"/></g></g></g></svg>