<svg xmlns:xlink="http://www.w3.org/1999/xlink" width="322" xmlns="http://www.w3.org/2000/svg" height="233" id="screenshot-0ba17294-9abd-8062-8004-282040034a3a" viewBox="590 718 322 233" style="-webkit-print-color-adjust: exact;" fill="none" version="1.1"><g id="shape-0ba17294-9abd-8062-8004-282040034a3a"><g class="fills" id="fills-0ba17294-9abd-8062-8004-282040034a3a"><path rx="0" ry="0" d="M602.510,728.747L618.085,719.000L911.000,719.000L911.000,931.823L885.146,950.000L682.441,950.000L608.905,950.000L591.000,950.000L591.000,882.181L601.231,876.837L601.231,774.143L591.000,769.313L591.000,736.755L602.510,728.747Z" style="fill: rgb(48, 171, 154); fill-opacity: 0.244;"/></g><g id="strokes-0ba17294-9abd-8062-8004-282040034a3a" class="strokes"><g class="stroke-shape"><path rx="0" ry="0" d="M602.510,728.747L618.085,719.000L911.000,719.000L911.000,931.823L885.146,950.000L682.441,950.000L608.905,950.000L591.000,950.000L591.000,882.181L601.231,876.837L601.231,774.143L591.000,769.313L591.000,736.755L602.510,728.747Z" style="fill: none; stroke-width: 2; stroke: rgb(94, 245, 254); stroke-opacity: 0.4;"/></g></g></g></svg>