<svg xmlns:xlink="http://www.w3.org/1999/xlink" width="257" xmlns="http://www.w3.org/2000/svg" height="360" id="screenshot-ace22f8b-e3e1-80da-8003-e9d2414edcb6" viewBox="2815 -1 257 360" style="-webkit-print-color-adjust: exact;" fill="none" version="1.1"><g id="shape-ace22f8b-e3e1-80da-8003-e9d2414edcb6"><g class="fills" id="fills-ace22f8b-e3e1-80da-8003-e9d2414edcb6"><path rx="0" ry="0" d="M2825.172,14.793L2837.583,0.000L2840.781,0.000L3071.000,0.000L3071.000,329.855L3050.398,358.000L2888.867,358.000L2830.268,358.000L2816.000,358.000L2816.000,252.799L2824.153,244.509L2824.153,85.212L2816.000,77.720L2816.000,27.215L2825.172,14.793Z" style="fill: rgb(48, 171, 154); fill-opacity: 0.244;"/></g><g id="strokes-ace22f8b-e3e1-80da-8003-e9d2414edcb6" class="strokes"><g class="stroke-shape"><path rx="0" ry="0" d="M2825.172,14.793L2837.583,0.000L2840.781,0.000L3071.000,0.000L3071.000,329.855L3050.398,358.000L2888.867,358.000L2830.268,358.000L2816.000,358.000L2816.000,252.799L2824.153,244.509L2824.153,85.212L2816.000,77.720L2816.000,27.215L2825.172,14.793Z" style="fill: none; stroke-width: 2; stroke: rgb(94, 245, 254); stroke-opacity: 0.4;"/></g></g></g></svg>