<svg xmlns:xlink="http://www.w3.org/1999/xlink" width="703" xmlns="http://www.w3.org/2000/svg" height="122" id="screenshot-ceef8eb8-1005-80ce-8003-f166155bd629" viewBox="-291 751 703 122" style="-webkit-print-color-adjust: exact;" fill="none" version="1.1"><g id="shape-ceef8eb8-1005-80ce-8003-f166155bd629"><g class="fills" id="fills-ceef8eb8-1005-80ce-8003-f166155bd629"><path rx="0" ry="0" d="M-264.786,757.063L-230.668,752.000L411.000,752.000L411.000,862.557L354.364,872.000L-89.687,872.000L-250.778,872.000L-290.000,872.000L-290.000,836.769L-267.587,833.993L-267.587,780.646L-290.000,778.137L-290.000,761.223L-264.786,757.063Z" style="fill: rgb(48, 171, 154); fill-opacity: 0.244;"/></g><g id="strokes-ceef8eb8-1005-80ce-8003-f166155bd629" class="strokes"><g class="stroke-shape"><path rx="0" ry="0" d="M-264.786,757.063L-230.668,752.000L411.000,752.000L411.000,862.557L354.364,872.000L-89.687,872.000L-250.778,872.000L-290.000,872.000L-290.000,836.769L-267.587,833.993L-267.587,780.646L-290.000,778.137L-290.000,761.223L-264.786,757.063Z" style="fill: none; stroke-width: 2; stroke: rgb(94, 245, 254); stroke-opacity: 0.4;"/></g></g></g></svg>