<svg xmlns:xlink="http://www.w3.org/1999/xlink" width="681" xmlns="http://www.w3.org/2000/svg" height="102" id="screenshot-ae8423e1-1879-80b0-8003-e861fd66488a" viewBox="-260 -12 681 102" style="-webkit-print-color-adjust: exact;" fill="none" version="1.1"><g id="shape-ae8423e1-1879-80b0-8003-e861fd66488a"><g class="fills" id="fills-ae8423e1-1879-80b0-8003-e861fd66488a"><path rx="0" ry="0" d="M-249.000,-11.000L-201.530,-11.000L420.000,-11.000L420.000,81.131L365.142,89.000L-64.973,89.000L-221.009,89.000L-252.981,89.000L-259.000,89.000L-259.000,81.241L-259.000,67.448L-249.000,57.103L-249.000,20.897L-259.000,10.781L-259.000,-3.314L-249.000,-11.000Z" style="fill: rgb(48, 171, 154); fill-opacity: 0.244;"/></g><g id="strokes-ae8423e1-1879-80b0-8003-e861fd66488a" class="strokes"><g class="stroke-shape"><path rx="0" ry="0" d="M-249.000,-11.000L-201.530,-11.000L420.000,-11.000L420.000,81.131L365.142,89.000L-64.973,89.000L-221.009,89.000L-252.981,89.000L-259.000,89.000L-259.000,81.241L-259.000,67.448L-249.000,57.103L-249.000,20.897L-259.000,10.781L-259.000,-3.314L-249.000,-11.000Z" style="fill: none; stroke-width: 2; stroke: rgb(94, 245, 254); stroke-opacity: 0.4;"/></g></g></g></svg>