<svg xmlns:xlink="http://www.w3.org/1999/xlink" width="349" xmlns="http://www.w3.org/2000/svg" height="360" id="screenshot-7ec3820d-8c2b-8098-8003-f6503f552478" viewBox="5668 -12 349 360" style="-webkit-print-color-adjust: exact;" fill="none" version="1.1"><g id="shape-7ec3820d-8c2b-8098-8003-f6503f552478"><g class="fills" id="fills-7ec3820d-8c2b-8098-8003-f6503f552478"><path rx="0" ry="0" d="M5681.481,3.793L5698.370,-11.000L5702.721,-11.000L6016.000,-11.000L6016.000,318.855L5987.965,347.000L5768.156,347.000L5688.415,347.000L5669.000,347.000L5669.000,241.799L5680.094,233.509L5680.094,74.212L5669.000,66.720L5669.000,16.215L5681.481,3.793Z" style="fill: rgb(46, 171, 153); fill-opacity: 0.244;"/></g><g id="strokes-7ec3820d-8c2b-8098-8003-f6503f552478" class="strokes"><g class="stroke-shape"><path rx="0" ry="0" d="M5681.481,3.793L5698.370,-11.000L5702.721,-11.000L6016.000,-11.000L6016.000,318.855L5987.965,347.000L5768.156,347.000L5688.415,347.000L5669.000,347.000L5669.000,241.799L5680.094,233.509L5680.094,74.212L5669.000,66.720L5669.000,16.215L5681.481,3.793Z" style="fill: none; stroke-width: 2; stroke: rgb(94, 245, 254); stroke-opacity: 0.4;"/></g></g></g></svg>