<svg xmlns:xlink="http://www.w3.org/1999/xlink" width="173" xmlns="http://www.w3.org/2000/svg" height="66" id="screenshot-06a87b31-6a9c-8096-8003-e833ac91a804" viewBox="-1158 -245 173 66" style="-webkit-print-color-adjust: exact;" fill="none" version="1.1"><g id="shape-06a87b31-6a9c-8096-8003-e833ac91a804"><defs><linearGradient id="fill-color-gradient_rumext-id-1_0" x1="0.49594358373094377" y1="-0.04904577313488514" x2="0.4910419847114107" y2="0.9912948849571211" gradientTransform="matrix(0.999982, 0.005979, -0.003929, 0.999992, 0.001974, -0.002986)"><stop offset="0" stop-color="#4959EC" stop-opacity="1"/><stop offset="1" stop-color="#5ef6ff" stop-opacity="0.6001847896684858"/></linearGradient><pattern patternUnits="userSpaceOnUse" x="-1157.873903581838" y="-244.48382772428977" height="64.9676554485759" width="172.74780716367673" data-loading="false" patternTransform="matrix(0.999982, 0.005979, -0.003929, 0.999992, -0.852174, 6.404781)" id="fill-0-rumext-id-1"><g><rect width="172.74780716367673" height="64.9676554485759" style="fill: url(&quot;#fill-color-gradient_rumext-id-1_0&quot;);"/></g></pattern></defs><g class="fills" id="fills-06a87b31-6a9c-8096-8003-e833ac91a804"><path rx="0" ry="0" d="M-1001.041,-218.434L-995.394,-218.401L-995.373,-223.716L-992.538,-223.699L-992.509,-231.030L-995.344,-231.047L-995.323,-236.362L-1006.877,-236.431L-1006.847,-244.098L-1135.920,-244.870L-1138.762,-244.887L-1141.597,-244.903L-1141.626,-237.573L-1138.791,-237.556L-1138.802,-234.687L-1144.961,-234.724L-1148.872,-234.747L-1148.844,-241.886L-1157.757,-241.939L-1157.802,-230.416L-1150.507,-230.372L-1150.543,-221.267L-1154.996,-221.293L-1155.046,-208.388L-1145.065,-208.328L-1145.090,-202.034L-1143.108,-202.022L-1143.120,-198.971L-1147.744,-198.999L-1147.758,-195.401L-1151.869,-195.425L-1151.898,-188.095L-1147.787,-188.070L-1147.818,-179.972L-1139.017,-179.919L-1137.837,-179.912L-1011.013,-179.154L-1011.013,-179.164L-998.828,-179.091L-998.799,-186.421L-1006.599,-186.468L-1006.583,-190.488L-993.789,-190.412L-993.739,-203.317L-997.442,-203.339L-997.424,-207.887L-985.142,-207.814L-985.113,-215.154L-1001.053,-215.249L-1001.041,-218.434ZL-1001.041,-218.434Z" fill="url(#fill-0-rumext-id-1)"/></g></g></svg>