<svg xmlns:xlink="http://www.w3.org/1999/xlink" width="172.807" xmlns="http://www.w3.org/2000/svg" height="65.163" id="screenshot-06a87b31-6a9c-8096-8003-e833ac91a804" viewBox="-1157.904 -244.582 172.807 65.163" style="-webkit-print-color-adjust: exact;" fill="none" version="1.1"><g id="shape-06a87b31-6a9c-8096-8003-e833ac91a804"><defs><linearGradient id="fill-color-gradient_rumext-id-1_0" x1="0.49594358373094377" y1="-0.04904577313488514" x2="0.4910419847114107" y2="0.9912948849571211" gradientTransform="matrix(0.999999, 0.001132, 0.000918, 1.000000, -0.000459, -0.000566)"><stop offset="0" stop-color="#4959EC" stop-opacity="1"/><stop offset="1" stop-color="#5ef6ff" stop-opacity="0.6001847896684858"/></linearGradient><pattern patternUnits="userSpaceOnUse" x="-1157.8739035818382" y="-244.48382772428977" height="64.96765544857593" width="172.74780716367692" data-loading="false" patternTransform="matrix(0.999999, 0.001132, 0.000918, 1.000000, 0.193856, 1.212795)" id="fill-0-rumext-id-1"><g><rect width="172.74780716367692" height="64.96765544857593" style="fill: url(&quot;#fill-color-gradient_rumext-id-1_0&quot;);"/></g></pattern></defs><g class="fills" id="fills-06a87b31-6a9c-8096-8003-e833ac91a804"><path rx="0" ry="0" d="M-1001.073,-218.776L-995.425,-218.769L-995.430,-224.085L-992.595,-224.082L-992.602,-231.412L-995.437,-231.416L-995.442,-236.731L-1006.997,-236.744L-1007.004,-244.411L-1136.078,-244.557L-1138.921,-244.560L-1141.755,-244.563L-1141.749,-237.233L-1138.914,-237.230L-1138.911,-234.361L-1145.071,-234.368L-1148.982,-234.372L-1148.988,-241.511L-1157.901,-241.521L-1157.890,-229.997L-1150.595,-229.989L-1150.587,-220.883L-1155.040,-220.888L-1155.028,-207.983L-1145.046,-207.972L-1145.041,-201.677L-1143.059,-201.675L-1143.056,-198.624L-1147.680,-198.629L-1147.676,-195.031L-1151.788,-195.036L-1151.781,-187.705L-1147.670,-187.701L-1147.662,-179.602L-1138.861,-179.592L-1137.681,-179.591L-1010.855,-179.448L-1010.855,-179.457L-998.669,-179.443L-998.676,-186.774L-1006.476,-186.783L-1006.479,-190.803L-993.686,-190.789L-993.697,-203.694L-997.400,-203.698L-997.405,-208.246L-985.123,-208.232L-985.130,-215.572L-1001.070,-215.590L-1001.073,-218.776ZL-1001.073,-218.776Z" fill="url(#fill-0-rumext-id-1)"/></g></g></svg>