<svg xmlns:xlink="http://www.w3.org/1999/xlink" width="54" xmlns="http://www.w3.org/2000/svg" height="40" id="screenshot-c0e1fbcd-3b09-808d-8003-e0329f3ce471" viewBox="1247 280 54 40" style="-webkit-print-color-adjust: exact;" fill="none" version="1.1"><g id="shape-c0e1fbcd-3b09-808d-8003-e0329f3ce471"><g class="fills" id="fills-c0e1fbcd-3b09-808d-8003-e0329f3ce471"><path rx="0" ry="0" d="M1259.000,280.000L1253.000,280.000C1249.686,280.000,1247.000,283.582,1247.000,288.000L1247.000,320.000L1253.000,320.000L1253.000,304.000L1259.000,304.000L1259.000,320.000L1265.000,320.000L1265.000,288.000C1265.000,283.582,1262.314,280.000,1259.000,280.000ZM1259.000,296.000L1253.000,296.000L1253.000,288.000L1259.000,288.000M1280.000,280.000L1268.000,280.000L1268.000,320.000L1274.000,320.000L1274.000,304.000L1280.000,304.000C1283.314,304.000,1286.000,300.418,1286.000,296.000L1286.000,288.000C1286.000,283.582,1283.314,280.000,1280.000,280.000ZM1280.000,296.000L1274.000,296.000L1274.000,288.000L1280.000,288.000M1298.000,288.000L1298.000,312.000L1301.000,312.000L1301.000,320.000L1289.000,320.000L1289.000,312.000L1292.000,312.000L1292.000,288.000L1289.000,288.000L1289.000,280.000L1301.000,280.000L1301.000,288.000Z" style="fill: rgb(94, 246, 255);"/></g></g></svg>