<svg xmlns:xlink="http://www.w3.org/1999/xlink" width="42.753" xmlns="http://www.w3.org/2000/svg" height="47.957" id="screenshot-c0e1fbcd-3b09-808d-8003-e02e9caec012" viewBox="1244 140 42.753 47.957" style="-webkit-print-color-adjust: exact;" fill="none" version="1.1"><g id="shape-c0e1fbcd-3b09-808d-8003-e02e9caec012"><g class="fills" id="fills-c0e1fbcd-3b09-808d-8003-e02e9caec012"><path rx="0" ry="0" d="M1244.000,140.000L1286.753,140.000L1284.420,180.817L1265.380,187.957L1246.335,180.817ZM1248.503,144.250L1250.420,177.808L1265.380,183.418L1280.335,177.808L1282.250,144.250ZM1251.527,148.500L1278.827,148.500L1278.597,152.510L1263.106,159.926L1278.172,159.926L1277.314,174.980L1265.375,179.457L1253.437,174.980L1253.195,170.742L1253.195,170.734L1253.035,167.780L1257.307,167.780L1257.438,170.509L1257.524,171.975L1265.375,174.916L1273.229,171.971L1273.676,164.172L1252.817,164.172L1252.591,160.245L1268.255,152.750L1265.375,152.750L1252.083,152.775Z" style="fill: rgb(94, 246, 255);"/></g></g></svg>