<svg xmlns:xlink="http://www.w3.org/1999/xlink" width="60" xmlns="http://www.w3.org/2000/svg" height="53" id="screenshot-c0e1fbcd-3b09-808d-8003-e03440614f9e" viewBox="1588.5 276 60 53" style="-webkit-print-color-adjust: exact;" fill="none" version="1.1"><g id="shape-c0e1fbcd-3b09-808d-8003-e03440614f9e"><g class="fills" id="fills-c0e1fbcd-3b09-808d-8003-e03440614f9e"><path rx="0" ry="0" d="M1647.369,300.138L1621.170,277.000C1620.446,276.360,1619.463,276.000,1618.438,276.000C1617.413,276.000,1616.431,276.360,1615.706,277.000L1609.619,282.375L1614.198,286.420C1616.351,285.508,1618.920,285.896,1620.608,287.387C1622.295,288.877,1622.734,291.146,1621.703,293.047L1629.203,299.671C1631.675,298.628,1634.639,299.310,1636.221,301.286C1637.803,303.262,1637.543,305.957,1635.605,307.668C1633.668,309.379,1630.617,309.608,1628.380,308.211C1626.143,306.814,1625.371,304.197,1626.552,302.013L1619.051,295.389C1618.872,295.464,1618.688,295.532,1618.500,295.591L1618.500,309.406C1621.083,310.212,1622.633,312.545,1622.169,314.930C1621.706,317.315,1619.365,319.058,1616.625,319.058C1613.885,319.058,1611.544,317.315,1611.081,314.930C1610.617,312.545,1612.167,310.212,1614.750,309.406L1614.750,295.591C1613.245,295.122,1612.037,294.110,1611.426,292.808C1610.815,291.506,1610.859,290.036,1611.547,288.765L1606.968,284.720L1589.631,300.032C1588.123,301.367,1588.123,303.527,1589.631,304.862L1615.830,328.000C1616.554,328.640,1617.537,329.000,1618.562,329.000C1619.587,329.000,1620.569,328.640,1621.294,328.000L1647.369,304.971C1648.877,303.637,1648.877,301.476,1647.369,300.138ZZ" style="fill: rgb(94, 246, 255);"/></g></g></svg>