<svg xmlns:xlink="http://www.w3.org/1999/xlink" width="56" xmlns="http://www.w3.org/2000/svg" height="53" id="screenshot-c0e1fbcd-3b09-808d-8003-e03506d93098" viewBox="1765.5 275 56 53" style="-webkit-print-color-adjust: exact;" fill="none" version="1.1"><g id="shape-c0e1fbcd-3b09-808d-8003-e03506d93098"><g class="fills" id="fills-c0e1fbcd-3b09-808d-8003-e03506d93098"><path fill-rule="evenodd" clip-rule="evenodd" rx="0" ry="0" d="M1793.416,275.000C1777.999,275.002,1765.502,287.159,1765.500,302.157C1765.500,314.148,1773.550,324.311,1784.508,327.978C1785.881,328.145,1786.391,327.311,1786.391,326.644L1786.391,321.979C1778.688,323.648,1776.977,318.316,1776.977,318.316C1775.776,315.149,1773.893,314.315,1773.893,314.315C1771.324,312.650,1774.061,312.650,1774.061,312.650C1776.801,312.817,1778.345,315.483,1778.345,315.483C1780.914,319.647,1784.852,318.479,1786.395,317.815C1786.563,315.983,1787.421,314.819,1788.107,314.152C1781.939,313.484,1775.433,311.152,1775.433,300.655C1775.433,297.659,1776.459,295.323,1778.345,293.325C1778.170,292.824,1777.145,289.995,1778.688,286.328C1778.688,286.328,1781.086,285.660,1786.391,289.160C1788.617,288.493,1791.019,288.326,1793.416,288.326C1795.814,288.326,1798.211,288.660,1800.437,289.160C1805.747,285.664,1808.144,286.328,1808.144,286.328C1809.684,289.995,1808.655,292.824,1808.483,293.491C1810.370,295.490,1811.410,298.109,1811.396,300.822C1811.396,311.319,1804.886,313.484,1798.725,314.152C1799.751,314.982,1800.608,316.647,1800.608,319.146L1800.608,326.644C1800.608,327.311,1801.120,328.142,1802.491,327.978C1813.875,324.241,1821.529,313.844,1821.500,302.157C1821.328,287.162,1808.830,275.000,1793.416,275.000Z" style="fill: rgb(94, 246, 255);"/></g></g></svg>