<svg xmlns:xlink="http://www.w3.org/1999/xlink" width="54.489" xmlns="http://www.w3.org/2000/svg" height="49.838" id="screenshot-c0e1fbcd-3b09-808d-8003-e03012b3b746" viewBox="1767.257 0.208 54.489 49.838" style="-webkit-print-color-adjust: exact;" fill="none" version="1.1"><g id="shape-c0e1fbcd-3b09-808d-8003-e03012b3b746"><g class="fills" id="fills-c0e1fbcd-3b09-808d-8003-e03012b3b746"><path rx="0" ry="0" d="M1767.257,0.208L1821.746,0.208L1818.772,42.626L1794.505,50.046L1770.233,42.626ZM1772.996,4.625L1775.439,39.499L1794.505,45.329L1813.567,39.499L1816.007,4.625ZM1777.356,9.042L1811.644,9.042L1811.332,13.496L1806.674,13.458L1783.090,13.458L1783.612,20.916L1810.812,20.916L1809.715,36.560L1794.500,41.213L1779.285,36.560L1778.759,29.078L1784.241,29.078L1784.360,31.551L1784.490,33.435L1794.500,36.496L1804.510,33.435L1805.079,25.330L1778.494,25.330Z" style="fill: rgb(94, 246, 255);"/></g></g></svg>