<svg xmlns:xlink="http://www.w3.org/1999/xlink" width="46.5" xmlns="http://www.w3.org/2000/svg" height="42.75" id="screenshot-c0e1fbcd-3b09-808d-8003-e0247dbfe042" viewBox="1241.75 -0.375 46.5 42.75" style="-webkit-print-color-adjust: exact;" fill="none" version="1.1"><g id="shape-c0e1fbcd-3b09-808d-8003-e0247dbfe042"><g class="fills" id="fills-c0e1fbcd-3b09-808d-8003-e0247dbfe042"><path rx="0" ry="0" d="M1249.500,-0.375C1245.220,-0.375,1241.750,2.815,1241.750,6.750L1241.750,35.250C1241.750,39.185,1245.220,42.375,1249.500,42.375L1280.500,42.375C1284.780,42.375,1288.250,39.185,1288.250,35.250L1288.250,6.750C1288.250,2.815,1284.780,-0.375,1280.500,-0.375ZM1268.446,30.631C1270.306,32.008,1272.161,32.685,1274.016,32.668C1275.152,32.668,1276.026,32.478,1276.630,32.094C1277.204,31.751,1277.539,31.155,1277.511,30.526C1277.519,29.844,1277.197,29.193,1276.633,28.750C1276.026,28.263,1274.879,27.776,1273.192,27.287C1271.166,26.747,1269.601,26.052,1268.503,25.197C1267.423,24.342,1266.875,23.149,1266.855,21.617C1266.855,20.171,1267.537,18.962,1268.901,17.986C1270.229,17.012,1271.923,16.523,1273.990,16.523C1276.868,16.523,1279.180,17.167,1280.921,18.456L1278.932,21.304C1278.216,20.792,1277.394,20.419,1276.516,20.207C1275.728,19.964,1274.904,19.832,1274.073,19.815C1273.091,19.815,1272.303,19.981,1271.714,20.311C1271.128,20.644,1270.836,21.078,1270.836,21.617C1270.836,22.211,1271.195,22.715,1271.913,23.133C1272.636,23.534,1273.866,23.978,1275.607,24.465C1277.710,25.040,1279.208,25.807,1280.097,26.764C1280.988,27.721,1281.433,28.942,1281.433,30.422C1281.433,31.937,1280.800,33.243,1279.529,34.340C1278.278,35.421,1276.460,35.986,1274.073,36.038C1270.947,36.038,1268.332,35.176,1266.230,33.452ZM1254.160,32.146C1254.767,32.495,1255.496,32.668,1256.348,32.668C1257.240,32.668,1257.976,32.433,1258.565,31.963C1259.151,31.476,1259.446,30.631,1259.446,29.429L1259.446,16.837L1263.282,16.837L1263.282,30.108C1263.225,32.162,1262.582,33.644,1261.350,34.549C1260.677,35.075,1259.894,35.466,1259.048,35.699C1258.265,35.918,1257.451,36.033,1256.633,36.038C1255.212,36.038,1253.951,35.813,1252.853,35.359C1251.678,34.872,1250.693,34.010,1249.898,32.773L1252.569,30.761C1253.060,31.372,1253.592,31.832,1254.160,32.146Z" style="fill: rgb(94, 246, 255);"/></g></g></svg>