<svg xmlns:xlink="http://www.w3.org/1999/xlink" width="56.928" xmlns="http://www.w3.org/2000/svg" height="55.68" id="screenshot-b8bd2ce8-4cbc-807f-8003-e164a1083f33" viewBox="1410.5 274 56.928 55.68" style="-webkit-print-color-adjust: exact;" fill="none" version="1.1"><g id="shape-b8bd2ce8-4cbc-807f-8003-e164a1083f33"><g class="fills" id="fills-b8bd2ce8-4cbc-807f-8003-e164a1083f33"><path rx="0" ry="0" d="M1444.099,281.925C1443.063,280.323,1443.395,279.267,1443.966,278.176C1444.478,277.200,1444.687,275.503,1442.879,274.168C1444.544,273.566,1447.171,274.631,1447.216,276.580C1446.250,277.886,1443.611,278.405,1444.099,281.925ZM1456.053,317.922C1455.244,320.496,1455.613,321.865,1452.098,327.210C1458.313,323.088,1461.245,317.765,1462.213,311.725C1462.821,314.244,1462.878,316.528,1462.640,318.687C1467.790,312.026,1471.319,298.592,1459.449,285.088C1458.972,291.057,1453.096,295.757,1446.319,293.914C1457.938,292.656,1458.683,278.141,1448.701,274.789C1448.896,278.827,1443.288,277.505,1444.937,282.907C1439.225,279.732,1426.745,279.080,1421.784,283.897C1419.226,286.380,1417.481,288.434,1414.284,288.569C1411.645,288.681,1408.160,292.889,1412.694,295.041C1413.127,296.834,1414.649,297.855,1415.532,298.031C1415.312,301.224,1416.004,299.596,1417.017,298.204C1416.676,302.241,1417.237,300.787,1418.825,298.710C1432.259,296.041,1439.678,306.804,1439.762,313.415C1439.703,312.215,1437.751,310.821,1436.719,311.205C1436.021,312.657,1435.260,313.890,1434.322,314.498C1434.420,313.535,1434.353,312.572,1434.175,311.609C1433.866,312.774,1433.283,313.983,1432.352,315.249C1430.500,315.351,1427.907,313.997,1428.661,311.754C1429.725,309.572,1427.639,309.118,1425.958,309.743C1424.695,310.212,1423.841,311.512,1423.725,311.916C1423.303,313.374,1423.442,316.630,1426.324,318.788C1425.568,318.925,1424.793,319.047,1424.265,319.352C1429.167,322.264,1434.171,321.280,1436.957,320.181C1441.519,318.382,1444.666,313.401,1445.158,309.558C1446.424,314.963,1444.156,320.969,1439.071,324.191C1440.524,324.342,1443.367,323.375,1446.275,322.356C1444.077,325.074,1441.449,327.652,1437.145,329.680C1445.623,328.982,1451.825,324.800,1456.053,317.922Z" style="fill: rgb(94, 246, 255);"/></g></g></svg>