<svg xmlns:xlink="http://www.w3.org/1999/xlink" width="62.517" xmlns="http://www.w3.org/2000/svg" height="57.563" id="screenshot-c0e1fbcd-3b09-808d-8003-e03133ea5ec9" viewBox="-0.258 -0.281 62.517 57.563" style="-webkit-print-color-adjust: exact;" fill="none" version="1.1"><g id="shape-c0e1fbcd-3b09-808d-8003-e03133ea5ec9" width="512" height="512" rx="0" ry="0" style="fill: rgb(0, 0, 0);"><g id="shape-c0e1fbcd-3b09-808d-8003-e03133eb011c"><g class="fills" id="fills-c0e1fbcd-3b09-808d-8003-e03133eb011c"><path class="clr-i-outline clr-i-outline-path-1" rx="0" ry="0" d="M17.849,54.174L3.281,46.282L3.423,30.750L18.132,23.126L32.699,31.017L32.558,46.549ZM6.742,44.477L17.882,50.548L29.130,44.681L29.238,32.822L18.098,26.799L6.850,32.618Z" style="fill: rgb(94, 246, 255);"/></g></g><g id="shape-c0e1fbcd-3b09-808d-8003-e03133eba692"><g class="fills" id="fills-c0e1fbcd-3b09-808d-8003-e03133eba692"><path class="clr-i-outline clr-i-outline-path-2" rx="0" ry="0" d="M43.681,54.409L29.114,46.518L29.255,30.986L43.964,23.361L58.532,31.253L58.390,46.785ZM32.575,44.713L43.714,50.783L54.963,44.917L55.071,33.058L43.931,27.034L32.683,32.854Z" style="fill: rgb(94, 246, 255);"/></g></g><g id="shape-c0e1fbcd-3b09-808d-8003-e03133ebd2ab"><g class="fills" id="fills-c0e1fbcd-3b09-808d-8003-e03133ebd2ab"><path class="clr-i-outline clr-i-outline-path-3" rx="0" ry="0" d="M30.952,33.756L16.385,25.865L16.526,10.333L31.235,2.709L45.803,10.600L45.661,26.132ZM19.846,24.060L30.986,30.083L42.234,24.248L42.342,12.405L31.202,6.334L19.954,12.201Z" style="fill: rgb(94, 246, 255);"/></g></g><g id="shape-c0e1fbcd-3b09-808d-8003-e03133ec3384"><g class="fills" id="fills-c0e1fbcd-3b09-808d-8003-e03133ec3384"><path fill="none" rx="0" ry="0" d="M0.261,-0.281L62.258,0.284L61.739,57.281L-0.258,56.716Z" style="fill: none;"/></g></g></g></svg>