<svg xmlns:xlink="http://www.w3.org/1999/xlink" width="58" xmlns="http://www.w3.org/2000/svg" height="57" id="screenshot-c0e1fbcd-3b09-808d-8003-e029675b082b" viewBox="0 0 58 57" style="-webkit-print-color-adjust: exact;" fill="none" version="1.1"><g id="shape-c0e1fbcd-3b09-808d-8003-e029675b082b" width="512" height="512" rx="0" ry="0" style="fill: rgb(0, 0, 0);"><g id="shape-c0e1fbcd-3b09-808d-8003-e029675eba87"><g class="fills" id="fills-c0e1fbcd-3b09-808d-8003-e029675eba87"><path rx="0" ry="0" d="M29.002,32.063C27.000,32.063,25.377,30.468,25.377,28.500C25.377,26.532,27.000,24.938,29.002,24.938C31.004,24.938,32.627,26.532,32.627,28.500C32.627,30.468,31.004,32.063,29.002,32.063ZM27.726,39.173C28.149,39.674,28.572,40.157,29.002,40.620C29.430,40.157,29.856,39.674,30.278,39.173C29.428,39.191,28.577,39.191,27.726,39.173ZM22.905,38.876C21.049,38.687,19.206,38.396,17.383,38.005C17.207,38.801,17.070,39.606,16.972,40.415C16.513,44.175,17.154,46.460,18.127,47.011C19.101,47.564,21.433,46.966,24.519,44.698C25.155,44.230,25.795,43.709,26.438,43.142C25.180,41.786,24.001,40.362,22.905,38.876ZM40.622,38.005C38.799,38.396,36.955,38.687,35.100,38.876C34.004,40.362,32.824,41.786,31.566,43.142C32.209,43.712,32.850,44.230,33.485,44.698C36.571,46.966,38.904,47.564,39.877,47.011C40.851,46.460,41.489,44.175,41.035,40.415C40.935,39.606,40.798,38.802,40.622,38.005ZM44.128,37.083C45.523,43.351,44.791,48.341,41.692,50.098C38.594,51.856,33.831,49.984,29.005,45.664C24.179,49.984,19.416,51.853,16.317,50.096C13.219,48.338,12.487,43.351,13.879,37.081C7.658,35.133,3.630,32.015,3.630,28.500C3.630,24.985,7.658,21.867,13.879,19.919C12.487,13.649,13.219,8.662,16.317,6.904C19.416,5.147,24.179,7.016,29.005,11.336C33.831,7.016,38.594,5.147,41.692,6.904C44.791,8.662,45.523,13.649,44.131,19.919C50.346,21.867,54.375,24.985,54.375,28.500C54.375,32.015,50.344,35.136,44.128,37.083ZM26.436,13.858C25.795,13.291,25.155,12.770,24.519,12.302C21.433,10.034,19.101,9.436,18.127,9.989C17.154,10.540,16.515,12.825,16.970,16.587C17.066,17.361,17.202,18.166,17.381,18.998C19.204,18.605,21.049,18.313,22.905,18.124C24.053,16.573,25.237,15.145,26.436,13.858ZM35.102,18.124C36.958,18.313,38.802,18.605,40.624,18.998C40.805,18.166,40.943,17.359,41.035,16.587C41.494,12.825,40.854,10.540,39.880,9.989C38.906,9.436,36.574,10.034,33.488,12.302C32.852,12.770,32.212,13.291,31.569,13.858C32.770,15.145,33.954,16.573,35.102,18.124ZM30.281,17.827C29.858,17.328,29.433,16.843,29.005,16.380C28.577,16.843,28.152,17.326,27.729,17.827C28.579,17.809,29.430,17.809,30.281,17.827ZM20.237,34.922C19.796,34.207,19.371,33.484,18.961,32.751C18.732,33.362,18.519,33.962,18.326,34.561C18.947,34.692,19.585,34.813,20.237,34.922ZM24.904,35.478C27.632,35.677,30.372,35.677,33.101,35.478C34.641,33.254,36.011,30.922,37.200,28.500C36.011,26.078,34.641,23.745,33.101,21.522C30.372,21.323,27.632,21.323,24.904,21.522C23.364,23.745,21.994,26.078,20.805,28.500C21.994,30.922,23.364,33.254,24.904,35.478ZM39.046,24.249C39.276,23.638,39.488,23.038,39.682,22.441C39.048,22.306,38.412,22.185,37.773,22.078C38.212,22.793,38.637,23.516,39.046,24.249ZM14.817,23.363C13.995,23.624,13.217,23.909,12.487,24.218C8.947,25.709,7.252,27.396,7.252,28.500C7.252,29.604,8.944,31.291,12.487,32.782C13.217,33.091,13.995,33.376,14.817,33.637C15.353,31.975,16.018,30.250,16.810,28.500C16.049,26.826,15.383,25.110,14.817,23.363ZM18.321,22.441C18.517,23.035,18.729,23.638,18.959,24.246C19.368,23.515,19.794,22.792,20.235,22.078C19.582,22.187,18.944,22.308,18.321,22.441ZM43.191,33.637C44.012,33.376,44.791,33.091,45.520,32.782C49.058,31.291,50.750,29.604,50.750,28.500C50.750,27.396,49.058,25.709,45.515,24.218C44.786,23.909,44.005,23.624,43.183,23.363C42.652,25.025,41.985,26.750,41.192,28.500C41.985,30.250,42.649,31.975,43.191,33.637ZM39.682,34.561C39.482,33.953,39.269,33.350,39.044,32.751C38.634,33.484,38.208,34.207,37.768,34.922C38.420,34.813,39.058,34.692,39.682,34.561Z" style="fill: rgb(94, 246, 255);"/></g></g></g></svg>