<svg xmlns:xlink="http://www.w3.org/1999/xlink" width="50" xmlns="http://www.w3.org/2000/svg" height="45" id="screenshot-c0e1fbcd-3b09-808d-8003-e03377a6c979" viewBox="1770.5 140 50 45" style="-webkit-print-color-adjust: exact;" fill="none" version="1.1"><g id="shape-c0e1fbcd-3b09-808d-8003-e03377a6c979"><g class="fills" id="fills-c0e1fbcd-3b09-808d-8003-e03377a6c979"><path rx="0" ry="0" d="M1790.973,140.000C1779.676,140.000,1770.519,141.548,1770.501,143.457L1770.500,143.453L1770.500,154.501C1770.500,156.413,1779.665,157.956,1790.973,157.956C1802.279,157.956,1811.445,156.403,1811.445,154.501L1811.445,143.453L1811.444,143.457C1811.426,141.548,1802.267,140.000,1790.973,140.000ZM1783.852,146.707C1784.425,146.744,1785.009,146.776,1785.605,146.803C1785.368,146.792,1785.118,146.787,1784.885,146.774C1784.530,146.756,1784.198,146.729,1783.852,146.707ZM1792.286,146.916C1791.847,146.921,1791.418,146.931,1790.973,146.931L1790.973,146.930C1790.703,146.930,1790.447,146.922,1790.180,146.920C1790.445,146.922,1790.705,146.927,1790.973,146.927C1791.416,146.927,1791.850,146.920,1792.286,146.916ZM1770.500,157.326L1770.500,166.948C1770.500,168.861,1779.665,170.402,1790.973,170.402C1793.654,170.402,1796.198,170.310,1798.542,170.152C1800.324,165.734,1804.712,162.609,1809.845,162.609C1810.388,162.609,1810.921,162.647,1811.445,162.715L1811.445,157.326C1811.445,159.240,1802.279,160.781,1790.973,160.781C1779.665,160.781,1770.500,159.230,1770.500,157.326ZZM1809.845,164.081C1805.607,164.081,1801.949,166.509,1800.232,170.026C1800.111,170.275,1800.000,170.530,1799.900,170.788C1799.818,171.000,1799.738,171.213,1799.669,171.430L1799.669,171.431C1799.601,171.651,1799.539,171.874,1799.485,172.098C1799.473,172.148,1799.462,172.198,1799.451,172.249C1799.398,172.473,1799.354,172.700,1799.317,172.927C1799.233,173.461,1799.190,174.000,1799.190,174.541C1799.190,178.300,1801.211,181.594,1804.243,183.438C1804.443,183.559,1804.647,183.674,1804.855,183.782C1804.868,183.789,1804.881,183.795,1804.893,183.801C1805.080,183.898,1805.271,183.988,1805.464,184.074C1805.496,184.088,1805.527,184.103,1805.559,184.116C1805.971,184.294,1806.398,184.448,1806.837,184.575C1807.062,184.639,1807.290,184.697,1807.519,184.747C1807.557,184.755,1807.595,184.765,1807.633,184.773C1807.854,184.819,1808.078,184.858,1808.305,184.890L1808.401,184.902C1808.597,184.928,1808.794,184.948,1808.993,184.964L1809.148,184.976C1809.379,184.990,1809.611,185.000,1809.845,185.000C1811.968,185.002,1814.043,184.380,1815.803,183.214C1816.369,182.839,1816.897,182.411,1817.380,181.936C1818.600,180.738,1819.506,179.268,1820.021,177.651C1820.232,176.987,1820.375,176.303,1820.446,175.610C1820.514,174.954,1820.518,174.293,1820.458,173.636C1820.455,173.603,1820.454,173.569,1820.450,173.536C1820.418,173.209,1820.370,172.884,1820.307,172.561C1820.256,172.298,1820.194,172.038,1820.123,171.780C1820.108,171.727,1820.092,171.675,1820.076,171.622C1820.001,171.365,1819.915,171.111,1819.820,170.860C1819.806,170.823,1819.790,170.787,1819.776,170.751C1819.674,170.491,1819.562,170.236,1819.439,169.986C1819.430,169.967,1819.419,169.949,1819.410,169.931C1819.284,169.679,1819.148,169.433,1819.002,169.192L1818.979,169.153C1818.831,168.913,1818.673,168.679,1818.506,168.451C1818.487,168.425,1818.470,168.399,1818.451,168.374C1818.289,168.158,1818.120,167.948,1817.942,167.745C1817.910,167.708,1817.878,167.672,1817.845,167.636C1817.668,167.438,1817.482,167.245,1817.290,167.061C1817.261,167.033,1817.231,167.007,1817.202,166.980C1817.001,166.790,1816.793,166.608,1816.577,166.434C1816.561,166.421,1816.544,166.409,1816.527,166.395C1816.305,166.219,1816.076,166.052,1815.841,165.894C1815.829,165.886,1815.819,165.878,1815.808,165.871L1815.803,165.868C1815.568,165.713,1815.327,165.568,1815.081,165.432C1815.050,165.415,1815.020,165.397,1814.989,165.380C1814.708,165.228,1814.420,165.089,1814.126,164.963C1813.879,164.856,1813.626,164.757,1813.369,164.669C1813.321,164.653,1813.273,164.638,1813.225,164.622C1812.965,164.536,1812.702,164.460,1812.436,164.394C1812.394,164.384,1812.351,164.376,1812.308,164.366C1812.024,164.298,1811.738,164.243,1811.449,164.199L1811.445,164.198C1810.915,164.120,1810.381,164.081,1809.845,164.081ZM1806.092,168.499L1816.000,174.113L1806.092,179.728ZM1770.500,169.775L1770.500,180.821C1770.500,182.734,1779.665,184.276,1790.973,184.276C1795.088,184.276,1798.863,184.059,1802.061,183.704C1799.389,181.515,1797.689,178.223,1797.689,174.540C1797.690,174.034,1797.724,173.528,1797.790,173.026C1795.520,173.161,1793.247,173.229,1790.973,173.228C1779.665,173.228,1770.500,171.677,1770.500,169.775Z" style="fill: rgb(94, 246, 255);"/></g></g></svg>