<svg xmlns:xlink="http://www.w3.org/1999/xlink" width="43.5" xmlns="http://www.w3.org/2000/svg" height="39.75" id="screenshot-c0e1fbcd-3b09-808d-8003-e02c774e0b59" viewBox="1416.75 138.625 43.5 39.75" style="-webkit-print-color-adjust: exact;" fill="none" version="1.1"><g id="shape-c0e1fbcd-3b09-808d-8003-e02c774e0b59"><g class="fills" id="fills-c0e1fbcd-3b09-808d-8003-e02c774e0b59"><path rx="0" ry="0" d="M1455.997,138.625L1421.003,138.625C1418.654,138.625,1416.750,140.365,1416.750,142.512L1416.750,174.488C1416.750,176.635,1418.654,178.375,1421.003,178.375L1455.997,178.375C1458.346,178.375,1460.250,176.635,1460.250,174.488L1460.250,142.512C1460.250,141.481,1459.802,140.492,1459.004,139.763C1458.207,139.034,1457.125,138.625,1455.997,138.625ZM1441.980,160.708L1436.543,160.708L1436.543,174.930L1432.217,174.930L1432.217,160.708L1426.779,160.708L1426.779,157.484L1441.980,157.484ZM1455.997,172.368C1455.647,173.048,1455.083,173.617,1454.377,174.002C1453.635,174.420,1452.816,174.712,1451.961,174.864C1451.007,175.044,1450.035,175.133,1449.061,175.129C1448.064,175.128,1447.069,175.047,1446.088,174.886C1445.254,174.730,1444.443,174.485,1443.672,174.157L1443.672,170.381L1443.527,170.248L1443.672,170.248L1443.672,170.403C1444.399,170.921,1445.215,171.324,1446.088,171.595C1446.960,171.899,1447.887,172.049,1448.819,172.037C1449.307,172.045,1449.793,172.000,1450.269,171.905C1450.627,171.828,1450.969,171.701,1451.284,171.529C1451.531,171.392,1451.738,171.202,1451.888,170.977C1452.192,170.453,1452.136,169.815,1451.743,169.343C1451.516,169.052,1451.229,168.804,1450.898,168.614C1450.495,168.356,1450.066,168.134,1449.617,167.952L1447.998,167.333C1446.716,166.851,1445.580,166.093,1444.687,165.125C1443.939,164.301,1443.544,163.258,1443.575,162.188C1443.547,161.375,1443.746,160.569,1444.155,159.847C1444.545,159.217,1445.091,158.680,1445.750,158.279C1446.484,157.833,1447.304,157.518,1448.167,157.352C1449.110,157.153,1450.075,157.057,1451.043,157.065C1451.924,157.053,1452.804,157.105,1453.677,157.219C1454.402,157.323,1455.115,157.493,1455.803,157.727L1455.803,161.371C1455.485,161.164,1455.145,160.986,1454.788,160.841C1454.404,160.690,1454.008,160.564,1453.604,160.465C1453.217,160.362,1452.821,160.288,1452.420,160.245C1452.050,160.213,1451.678,160.213,1451.308,160.245C1450.853,160.238,1450.398,160.282,1449.955,160.377C1449.591,160.447,1449.241,160.566,1448.916,160.730C1448.662,160.867,1448.447,161.056,1448.288,161.282C1448.143,161.502,1448.068,161.755,1448.070,162.011C1448.064,162.285,1448.148,162.554,1448.312,162.784C1448.510,163.035,1448.756,163.252,1449.037,163.425C1449.377,163.672,1449.751,163.880,1450.148,164.043L1451.671,164.661C1452.371,164.926,1453.049,165.236,1453.701,165.589C1454.274,165.875,1454.795,166.240,1455.248,166.671C1455.691,167.063,1456.037,167.538,1456.263,168.062C1456.494,168.665,1456.609,169.300,1456.601,169.939C1456.584,170.764,1456.378,171.576,1455.997,172.368ZZ" style="fill: rgb(94, 246, 255);"/></g></g></svg>